<svg width="175" height="39" viewBox="0 0 175 39" fill="none" xmlns="http://www.w3.org/2000/svg">
<path d="M57.5724 16.4314C57.4997 15.751 57.1932 15.2213 56.6531 14.8422C56.1182 14.463 55.4223 14.2735 54.5653 14.2735C53.9629 14.2735 53.4461 14.3644 53.015 14.5461C52.584 14.7279 52.2542 14.9746 52.0257 15.2862C51.7972 15.5978 51.6803 15.9536 51.6751 16.3535C51.6751 16.6859 51.7504 16.9741 51.901 17.2182C52.0568 17.4623 52.2672 17.6701 52.532 17.8414C52.7969 18.0076 53.0904 18.1479 53.4124 18.2621C53.7344 18.3764 54.0589 18.4725 54.3861 18.5504L55.8819 18.9243C56.4843 19.0645 57.0634 19.2541 57.6191 19.493C58.18 19.7319 58.6812 20.0331 59.1226 20.3967C59.5693 20.7602 59.9225 21.1991 60.1821 21.7132C60.4418 22.2274 60.5716 22.8298 60.5716 23.5206C60.5716 24.4554 60.3327 25.2786 59.8549 25.9901C59.3771 26.6964 58.6864 27.2495 57.7827 27.6494C56.8842 28.0441 55.7962 28.2415 54.5186 28.2415C53.2773 28.2415 52.1997 28.0493 51.2856 27.665C50.3767 27.2807 49.6652 26.7198 49.1511 25.9823C48.6421 25.2448 48.3668 24.3463 48.3253 23.2869H51.1687C51.2103 23.8426 51.3817 24.3048 51.6829 24.6735C51.9841 25.0423 52.3762 25.3175 52.8592 25.4993C53.3474 25.6811 53.8928 25.772 54.4952 25.772C55.1236 25.772 55.6741 25.6785 56.1468 25.4915C56.6246 25.2994 56.9985 25.0345 57.2686 24.6969C57.5386 24.3541 57.6762 23.9542 57.6814 23.4972C57.6762 23.0817 57.5542 22.7389 57.3153 22.4689C57.0764 22.1936 56.7414 21.9651 56.3103 21.7833C55.8845 21.5964 55.3859 21.4302 54.8146 21.2848L52.9995 20.8173C51.6855 20.4798 50.6468 19.9682 49.8833 19.2826C49.1251 18.5919 48.746 17.6752 48.746 16.5327C48.746 15.5926 49.0004 14.7695 49.5094 14.0631C50.0236 13.3568 50.7221 12.8089 51.605 12.4194C52.4879 12.0247 53.4877 11.8273 54.6043 11.8273C55.7365 11.8273 56.7284 12.0247 57.5802 12.4194C58.4371 12.8089 59.1097 13.3516 59.5979 14.0476C60.086 14.7383 60.3379 15.5329 60.3535 16.4314H57.5724ZM70.6504 22.9675V16.0341H73.4704V28H70.736V25.8732H70.6114C70.3413 26.5432 69.8973 27.0911 69.2793 27.517C68.6664 27.9429 67.9108 28.1558 67.0123 28.1558C66.2281 28.1558 65.5347 27.9818 64.9323 27.6339C64.335 27.2807 63.8676 26.7691 63.53 26.0992C63.1924 25.424 63.0236 24.6086 63.0236 23.653V16.0341H65.8437V23.2168C65.8437 23.975 66.0515 24.5775 66.467 25.0241C66.8824 25.4707 67.4278 25.6941 68.1029 25.6941C68.5184 25.6941 68.9209 25.5928 69.3104 25.3902C69.6999 25.1877 70.0193 24.8865 70.2686 24.4866C70.5231 24.0815 70.6504 23.5751 70.6504 22.9675ZM76.3704 32.4872V16.0341H79.1437V18.0128H79.3073C79.4527 17.722 79.6579 17.413 79.9228 17.0858C80.1876 16.7534 80.546 16.4703 80.9978 16.2366C81.4497 15.9977 82.0261 15.8783 82.7273 15.8783C83.6517 15.8783 84.4853 16.1146 85.228 16.5872C85.9758 17.0546 86.5679 17.748 87.0042 18.6672C87.4456 19.5813 87.6663 20.7031 87.6663 22.0326C87.6663 23.3466 87.4508 24.4632 87.0197 25.3825C86.5887 26.3017 86.0018 27.0028 85.2591 27.4858C84.5164 27.9688 83.6751 28.2103 82.7351 28.2103C82.0495 28.2103 81.4808 28.0961 81.029 27.8676C80.5771 27.639 80.2136 27.3638 79.9383 27.0418C79.6683 26.7146 79.4579 26.4056 79.3073 26.1147H79.1905V32.4872H76.3704ZM79.1359 22.017C79.1359 22.7909 79.245 23.4686 79.4631 24.0503C79.6865 24.632 80.0059 25.0864 80.4213 25.4136C80.842 25.7356 81.351 25.8966 81.9482 25.8966C82.5715 25.8966 83.0934 25.7304 83.5141 25.398C83.9348 25.0605 84.2516 24.6008 84.4645 24.0192C84.6826 23.4323 84.7917 22.7649 84.7917 22.017C84.7917 21.2744 84.6852 20.6148 84.4723 20.0383C84.2594 19.4618 83.9426 19.01 83.5219 18.6828C83.1012 18.3556 82.5767 18.192 81.9482 18.192C81.3458 18.192 80.8342 18.3504 80.4136 18.6672C79.9929 18.984 79.6735 19.4281 79.4553 19.9994C79.2424 20.5706 79.1359 21.2432 79.1359 22.017ZM95.3787 28.2337C94.179 28.2337 93.1429 27.9844 92.2704 27.4858C91.4031 26.9821 90.7357 26.2706 90.2683 25.3513C89.8009 24.4268 89.5672 23.3388 89.5672 22.0872C89.5672 20.8563 89.8009 19.776 90.2683 18.8464C90.7409 17.9116 91.4005 17.1845 92.247 16.6651C93.0936 16.1406 94.0881 15.8783 95.2307 15.8783C95.9682 15.8783 96.6641 15.9977 97.3185 16.2366C97.9781 16.4703 98.5598 16.8339 99.0635 17.3273C99.5725 17.8207 99.9724 18.4491 100.263 19.2125C100.554 19.9708 100.7 20.8745 100.7 21.9236V22.7883H90.8915V20.8875H97.9963C97.9911 20.3473 97.8742 19.8669 97.6457 19.4462C97.4172 19.0204 97.0978 18.6854 96.6875 18.4413C96.2824 18.1972 95.8098 18.0752 95.2697 18.0752C94.6932 18.0752 94.1868 18.2154 93.7506 18.4958C93.3143 18.7711 92.9741 19.1346 92.73 19.5865C92.4911 20.0331 92.3691 20.5239 92.3639 21.0588V22.7182C92.3639 23.4141 92.4911 24.0114 92.7456 24.5099C93.0001 25.0033 93.3558 25.3825 93.8129 25.6473C94.2699 25.907 94.8048 26.0368 95.4177 26.0368C95.828 26.0368 96.1993 25.9797 96.5317 25.8655C96.8641 25.746 97.1523 25.572 97.3964 25.3435C97.6405 25.115 97.8249 24.8319 97.9495 24.4944L100.583 24.7904C100.416 25.4863 100.1 26.094 99.6322 26.6133C99.17 27.1275 98.5779 27.5274 97.856 27.813C97.1341 28.0935 96.3084 28.2337 95.3787 28.2337ZM103.085 28V16.0341H105.82V18.0284H105.944C106.162 17.3377 106.536 16.8053 107.066 16.4314C107.601 16.0523 108.211 15.8627 108.897 15.8627C109.053 15.8627 109.227 15.8705 109.419 15.8861C109.616 15.8965 109.78 15.9146 109.91 15.9406V18.5348C109.79 18.4932 109.601 18.4569 109.341 18.4257C109.086 18.3894 108.84 18.3712 108.601 18.3712C108.087 18.3712 107.624 18.4828 107.214 18.7062C106.809 18.9243 106.49 19.2281 106.256 19.6176C106.022 20.0071 105.905 20.4564 105.905 20.9654V28H103.085ZM111.783 32.4872V16.0341H114.557V18.0128H114.72C114.866 17.722 115.071 17.413 115.336 17.0858C115.6 16.7534 115.959 16.4703 116.411 16.2366C116.862 15.9977 117.439 15.8783 118.14 15.8783C119.065 15.8783 119.898 16.1146 120.641 16.5872C121.389 17.0546 121.981 17.748 122.417 18.6672C122.858 19.5813 123.079 20.7031 123.079 22.0326C123.079 23.3466 122.864 24.4632 122.433 25.3825C122.001 26.3017 121.415 27.0028 120.672 27.4858C119.929 27.9688 119.088 28.2103 118.148 28.2103C117.462 28.2103 116.894 28.0961 116.442 27.8676C115.99 27.639 115.626 27.3638 115.351 27.0418C115.081 26.7146 114.871 26.4056 114.72 26.1147H114.603V32.4872H111.783ZM114.549 22.017C114.549 22.7909 114.658 23.4686 114.876 24.0503C115.099 24.632 115.419 25.0864 115.834 25.4136C116.255 25.7356 116.764 25.8966 117.361 25.8966C117.984 25.8966 118.506 25.7304 118.927 25.398C119.348 25.0605 119.664 24.6008 119.877 24.0192C120.095 23.4323 120.204 22.7649 120.204 22.017C120.204 21.2744 120.098 20.6148 119.885 20.0383C119.672 19.4618 119.355 19.01 118.935 18.6828C118.514 18.3556 117.989 18.192 117.361 18.192C116.759 18.192 116.247 18.3504 115.826 18.6672C115.406 18.984 115.086 19.4281 114.868 19.9994C114.655 20.5706 114.549 21.2432 114.549 22.017ZM130.714 28.2337C129.545 28.2337 128.532 27.9766 127.675 27.4625C126.818 26.9483 126.154 26.229 125.681 25.3046C125.214 24.3801 124.98 23.2998 124.98 22.0638C124.98 20.8277 125.214 19.7449 125.681 18.8152C126.154 17.8856 126.818 17.1637 127.675 16.6495C128.532 16.1354 129.545 15.8783 130.714 15.8783C131.882 15.8783 132.895 16.1354 133.752 16.6495C134.609 17.1637 135.271 17.8856 135.738 18.8152C136.211 19.7449 136.447 20.8277 136.447 22.0638C136.447 23.2998 136.211 24.3801 135.738 25.3046C135.271 26.229 134.609 26.9483 133.752 27.4625C132.895 27.9766 131.882 28.2337 130.714 28.2337ZM130.729 25.9745C131.363 25.9745 131.893 25.8005 132.318 25.4526C132.744 25.0994 133.061 24.6268 133.269 24.0347C133.482 23.4427 133.588 22.7831 133.588 22.056C133.588 21.3237 133.482 20.6615 133.269 20.0695C133.061 19.4722 132.744 18.997 132.318 18.6438C131.893 18.2907 131.363 18.1141 130.729 18.1141C130.08 18.1141 129.54 18.2907 129.109 18.6438C128.683 18.997 128.364 19.4722 128.151 20.0695C127.943 20.6615 127.839 21.3237 127.839 22.056C127.839 22.7831 127.943 23.4427 128.151 24.0347C128.364 24.6268 128.683 25.0994 129.109 25.4526C129.54 25.8005 130.08 25.9745 130.729 25.9745ZM138.841 28V16.0341H141.575V18.0284H141.7C141.918 17.3377 142.292 16.8053 142.822 16.4314C143.357 16.0523 143.967 15.8627 144.652 15.8627C144.808 15.8627 144.982 15.8705 145.174 15.8861C145.372 15.8965 145.535 15.9146 145.665 15.9406V18.5348C145.546 18.4932 145.356 18.4569 145.096 18.4257C144.842 18.3894 144.595 18.3712 144.356 18.3712C143.842 18.3712 143.38 18.4828 142.97 18.7062C142.565 18.9243 142.245 19.2281 142.011 19.6176C141.778 20.0071 141.661 20.4564 141.661 20.9654V28H138.841ZM154.157 16.0341V18.2154H147.278V16.0341H154.157ZM148.976 13.1673H151.796V24.4009C151.796 24.78 151.853 25.0708 151.968 25.2734C152.087 25.4707 152.243 25.6058 152.435 25.6785C152.627 25.7512 152.84 25.7876 153.074 25.7876C153.25 25.7876 153.411 25.7746 153.557 25.7486C153.707 25.7226 153.822 25.6993 153.9 25.6785L154.375 27.8831C154.224 27.9351 154.009 27.9922 153.728 28.0545C153.453 28.1169 153.115 28.1532 152.715 28.1636C152.009 28.1844 151.373 28.0779 150.807 27.8442C150.241 27.6053 149.791 27.2366 149.459 26.738C149.132 26.2394 148.971 25.6162 148.976 24.8683V13.1673ZM159.958 28.2415C159.2 28.2415 158.517 28.1065 157.91 27.8364C157.307 27.5611 156.829 27.1561 156.476 26.6211C156.128 26.0862 155.954 25.4266 155.954 24.6424C155.954 23.9672 156.079 23.4089 156.328 22.9675C156.577 22.526 156.918 22.1729 157.349 21.908C157.78 21.6431 158.265 21.4432 158.805 21.3081C159.351 21.1679 159.914 21.0666 160.496 21.0043C161.197 20.9316 161.766 20.8667 162.202 20.8095C162.638 20.7472 162.955 20.6537 163.152 20.5291C163.355 20.3993 163.456 20.1993 163.456 19.9292V19.8825C163.456 19.2956 163.282 18.8412 162.934 18.5192C162.586 18.1972 162.085 18.0362 161.431 18.0362C160.74 18.0362 160.192 18.1868 159.787 18.488C159.387 18.7893 159.117 19.145 158.977 19.5553L156.344 19.1814C156.551 18.4543 156.894 17.8466 157.372 17.3584C157.85 16.8651 158.434 16.4963 159.125 16.2522C159.816 16.0029 160.579 15.8783 161.415 15.8783C161.992 15.8783 162.566 15.9458 163.137 16.0808C163.708 16.2159 164.23 16.4392 164.703 16.7508C165.175 17.0572 165.554 17.4753 165.84 18.005C166.131 18.5348 166.276 19.197 166.276 19.9916V28H163.565V26.3562H163.472C163.3 26.6886 163.059 27.0002 162.747 27.2911C162.441 27.5767 162.054 27.8078 161.587 27.9844C161.124 28.1558 160.582 28.2415 159.958 28.2415ZM160.691 26.1693C161.257 26.1693 161.748 26.0576 162.163 25.8343C162.579 25.6058 162.898 25.3046 163.121 24.9306C163.35 24.5567 163.464 24.149 163.464 23.7075V22.2975C163.376 22.3702 163.225 22.4377 163.012 22.5C162.804 22.5624 162.571 22.6169 162.311 22.6636C162.051 22.7104 161.794 22.7519 161.54 22.7883C161.285 22.8246 161.065 22.8558 160.878 22.8818C160.457 22.9389 160.08 23.0324 159.748 23.1622C159.416 23.2921 159.153 23.4738 158.961 23.7075C158.769 23.9361 158.673 24.2321 158.673 24.5956C158.673 25.115 158.863 25.5071 159.242 25.772C159.621 26.0368 160.104 26.1693 160.691 26.1693ZM171.932 12.0455V28H169.112V12.0455H171.932Z" fill="white"/>
<path fill-rule="evenodd" clip-rule="evenodd" d="M19.0938 39C29.6389 39 38.1875 30.4514 38.1875 19.9062C38.1875 9.36106 29.6389 0.8125 19.0938 0.8125C8.54856 0.8125 0 9.36106 0 19.9062C0 30.4514 8.54856 39 19.0938 39ZM17.8181 35.945C27.0979 35.945 34.6206 28.4222 34.6206 19.1425C34.6206 9.8627 27.0979 2.33997 17.8181 2.33997C8.53836 2.33997 1.01562 9.8627 1.01562 19.1425C1.01562 28.4222 8.53836 35.945 17.8181 35.945Z" fill="white"/>
<path fill-rule="evenodd" clip-rule="evenodd" d="M16.857 33.0099C25.045 33.0099 31.6827 26.3722 31.6827 18.1841C31.6827 9.99611 25.045 3.3584 16.857 3.3584C8.66896 3.3584 2.03125 9.99611 2.03125 18.1841C2.03125 26.3722 8.66896 33.0099 16.857 33.0099ZM15.8748 30.6377C23.0802 30.6377 28.9214 24.7966 28.9214 17.5911C28.9214 10.3856 23.0802 4.54443 15.8748 4.54443C8.66931 4.54443 2.82812 10.3856 2.82812 17.5911C2.82812 24.7966 8.66931 30.6377 15.8748 30.6377Z" fill="white"/>
<path fill-rule="evenodd" clip-rule="evenodd" d="M14.5773 27.4246C20.6606 27.4246 25.592 22.4931 25.592 16.4098C25.592 10.3265 20.6606 5.39502 14.5773 5.39502C8.49398 5.39502 3.5625 10.3265 3.5625 16.4098C3.5625 22.4931 8.49398 27.4246 14.5773 27.4246ZM13.8414 25.6622C19.1947 25.6622 23.5344 21.3225 23.5344 15.9692C23.5344 10.6159 19.1947 6.27621 13.8414 6.27621C8.48814 6.27621 4.14844 10.6159 4.14844 15.9692C4.14844 21.3225 8.48814 25.6622 13.8414 25.6622Z" fill="white"/>
</svg>
